<?xml version="1.0" standalone="no"?>
<!DOCTYPE svg PUBLIC "-//W3C//DTD SVG 20010904//EN"
 "http://www.w3.org/TR/2001/REC-SVG-20010904/DTD/svg10.dtd">
<svg version="1.0" xmlns="http://www.w3.org/2000/svg"
 width="600.000000pt" height="300.000000pt" viewBox="0 0 600.000000 300.000000"
 preserveAspectRatio="xMidYMid meet">

<g transform="translate(0.000000,300.000000) scale(0.100000,-0.100000)"
fill="#000000" stroke="none">
<path d="M0 1500 l0 -1500 3000 0 3000 0 0 1500 0 1500 -3000 0 -3000 0 0
-1500z m450 661 c0 -18 63 -86 91 -98 16 -7 93 -29 172 -49 144 -37 251 -86
275 -125 25 -40 90 -228 102 -294 6 -38 18 -92 26 -119 8 -27 14 -61 14 -75 0
-41 -60 -187 -90 -218 -58 -60 -132 -123 -173 -147 -47 -28 -222 -76 -274 -76
-37 0 -38 -3 -33 -122 2 -65 -4 -69 -57 -43 -50 25 -57 39 -37 76 22 44 35
218 24 339 -8 90 -11 142 -26 410 -3 63 -14 147 -24 185 -10 39 -21 105 -25
148 -4 42 -10 77 -14 77 -4 0 -15 14 -25 32 -18 29 -18 32 -2 43 9 7 16 21 16
33 0 11 6 23 13 25 20 9 47 8 47 -2z m1895 -203 c-21 -68 -27 -109 -21 -140
l6 -35 48 5 c26 3 50 9 53 14 12 19 44 2 76 -40 18 -24 33 -48 33 -53 0 -15
-52 -10 -71 7 -14 12 -29 14 -73 9 -50 -6 -56 -10 -56 -30 0 -20 30 -248 60
-455 6 -41 13 -86 14 -100 2 -14 8 -35 14 -47 26 -48 3 -56 -71 -24 -54 23
-64 37 -37 51 16 9 19 18 15 48 -3 20 -9 114 -15 207 -5 94 -15 209 -22 256
l-12 87 -80 -5 c-60 -4 -86 -10 -102 -24 -11 -11 -26 -19 -32 -19 -10 0 -52
73 -52 90 0 4 46 6 103 6 128 -1 157 6 157 39 0 44 -29 99 -61 118 -38 21 -33
29 34 43 87 19 100 18 92 -8z m2431 -24 c68 -23 78 -33 59 -54 -14 -15 -23
-129 -11 -141 2 -2 44 -1 93 2 79 5 90 4 106 -14 13 -15 15 -23 6 -33 -13 -16
-45 -18 -54 -4 -7 11 -116 12 -155 1 -21 -6 -25 -12 -22 -42 2 -19 -7 -82 -19
-140 -21 -97 -26 -201 -16 -339 l2 -35 -50 3 c-58 4 -91 26 -56 37 19 6 21 14
21 88 1 48 7 98 16 122 35 90 45 134 52 214 8 83 8 83 -18 93 -14 6 -63 7
-116 4 l-91 -6 -11 51 c-7 28 -10 55 -7 60 5 8 51 -15 65 -32 15 -18 56 -29
114 -29 76 0 78 3 71 94 -3 41 -11 66 -25 81 -37 39 -27 43 46 19z m-2171 -84
c20 0 37 -6 39 -12 2 -7 9 -67 16 -133 7 -66 15 -140 19 -165 l6 -45 70 -1
c39 0 89 -4 113 -8 l42 -8 2 109 c3 161 3 166 -5 195 -6 24 -4 28 29 38 30 10
39 10 51 -3 13 -13 13 -24 1 -83 -8 -45 -11 -107 -8 -177 4 -80 2 -112 -7
-119 -9 -7 -13 -45 -13 -122 0 -105 2 -117 30 -175 34 -70 31 -86 -21 -93 -47
-7 -54 11 -55 151 -3 253 0 229 -36 235 -18 3 -60 7 -93 10 -33 2 -68 7 -77
11 -12 5 -20 2 -24 -10 -6 -16 19 -307 32 -366 6 -29 -12 -39 -71 -39 -51 0
-60 13 -31 45 20 22 26 40 28 79 2 59 0 148 -4 226 -3 54 -4 55 -33 56 -53 1
-65 4 -65 14 0 5 20 15 45 21 25 6 45 16 45 23 -1 27 -21 155 -32 201 -7 28
-25 72 -40 98 -33 57 -36 72 -9 57 11 -5 36 -10 56 -10z m1375 -45 c0 -8 -5
-15 -10 -15 -7 0 -10 -93 -7 -287 l3 -288 33 -69 c25 -51 31 -73 24 -85 -17
-27 -38 -23 -84 15 -32 26 -47 48 -55 80 -7 24 -21 58 -32 76 -12 18 -37 64
-56 101 -49 96 -220 345 -238 346 -3 1 -5 -47 -5 -106 1 -60 -1 -168 -5 -242
-5 -74 -4 -139 1 -145 4 -6 11 -28 14 -49 5 -35 4 -38 -33 -57 -21 -11 -41
-24 -45 -30 -6 -10 -45 -14 -45 -5 0 5 6 19 33 70 11 21 15 62 16 140 0 61 3
155 7 210 4 77 1 123 -14 200 -11 55 -23 108 -27 119 -8 18 -4 18 51 12 60 -7
84 -24 84 -56 0 -17 92 -156 116 -175 7 -5 43 -59 81 -120 100 -160 117 -185
125 -185 13 0 -11 435 -28 511 -5 23 -1 28 23 37 42 16 73 14 73 -3z m-2077
-40 c21 -102 40 -178 69 -277 l32 -107 43 -3 c46 -3 56 -16 27 -33 -45 -25
-48 -33 -29 -83 10 -26 33 -75 51 -109 19 -34 30 -64 26 -67 -15 -9 -94 1
-102 14 -4 7 -6 27 -3 44 3 18 -5 63 -17 105 l-23 74 -96 -7 c-53 -4 -99 -10
-104 -15 -4 -4 -3 -38 4 -75 10 -59 9 -73 -5 -105 -10 -20 -16 -44 -14 -52 2
-10 -9 -15 -39 -17 -47 -3 -49 -1 -31 31 15 28 38 159 38 219 0 26 7 72 15
103 14 57 23 306 11 336 -5 12 7 22 51 41 32 15 65 26 73 25 8 -1 18 -19 23
-42z m-574 1 c20 -24 163 -41 234 -27 54 10 59 6 61 -50 3 -48 -7 -49 -100
-14 -45 17 -87 25 -129 25 -59 0 -63 -1 -69 -26 -4 -14 -4 -70 0 -124 l7 -99
66 -6 c162 -14 194 -20 205 -37 8 -13 7 -21 -2 -30 -10 -10 -18 -9 -41 5 -20
12 -63 19 -134 23 l-105 7 -7 -64 c-4 -35 -14 -81 -21 -103 -8 -22 -16 -52
-19 -67 -5 -27 -4 -27 58 -34 34 -4 75 -9 91 -10 16 -2 34 -9 39 -14 18 -18
55 -12 77 12 l21 22 20 -24 c25 -31 24 -60 -3 -70 -13 -5 -26 -7 -29 -5 -3 1
-68 8 -145 13 -124 10 -140 9 -151 -5 -7 -9 -19 -14 -27 -11 -12 5 -14 16 -9
54 3 26 10 53 14 59 9 11 17 89 40 372 12 151 12 153 -9 175 -28 29 -27 33 3
41 14 4 25 11 25 16 0 15 26 12 39 -4z m2986 -136 c65 -38 80 -53 140 -129 57
-73 60 -90 34 -198 -21 -84 -28 -100 -61 -130 -80 -74 -299 -46 -346 44 -7 13
-12 67 -12 130 0 99 2 112 25 145 14 20 25 41 25 45 0 25 112 123 140 123 3 0
28 -14 55 -30z m802 5 c75 -20 182 -19 244 1 58 19 76 14 85 -23 4 -15 12 -31
18 -35 22 -14 -4 -20 -36 -8 -18 8 -90 16 -161 19 -114 5 -128 4 -133 -11 -7
-24 -7 -229 1 -236 4 -4 68 -7 142 -8 115 -1 137 -4 145 -18 14 -26 -12 -30
-154 -22 l-131 6 6 -47 c4 -27 11 -73 17 -103 5 -30 7 -67 4 -82 -5 -26 -4
-27 48 -31 29 -3 67 -5 83 -5 80 0 169 -9 172 -18 3 -11 -5 -22 -39 -53 -26
-23 -28 -23 -54 -6 -20 13 -56 18 -148 22 -66 3 -125 9 -131 14 -5 5 -17 9
-26 9 -9 0 -22 7 -29 15 -10 12 -7 15 13 20 23 6 26 13 29 63 2 32 0 116 -5
187 -5 72 -10 171 -11 222 -2 57 -7 97 -15 107 -7 8 -10 20 -6 26 8 13 3 13
72 -5z"/>
<path d="M496 1908 c11 -247 27 -467 36 -503 5 -21 12 -120 14 -218 2 -98 6
-182 9 -187 4 -7 137 29 233 64 23 8 73 35 111 60 57 36 73 53 95 99 36 73 48
162 37 278 -5 55 -5 99 0 105 5 7 -7 49 -32 112 -39 97 -44 103 -114 162 -84
69 -121 85 -237 100 -46 6 -100 13 -120 16 l-37 6 5 -94z m312 -350 c19 -19
15 -66 -7 -78 -52 -27 -101 -4 -101 49 0 31 83 54 108 29z"/>
<path d="M1838 1673 c-18 -22 -38 -131 -38 -212 0 -34 -5 -72 -11 -83 -10 -19
-9 -20 12 -15 13 3 55 9 92 13 43 4 67 11 64 18 -2 6 -12 38 -21 71 -43 153
-67 225 -75 225 -4 0 -15 -8 -23 -17z"/>
<path d="M4225 1582 c-43 -27 -51 -39 -81 -127 -29 -88 -35 -214 -11 -243 20
-25 89 -52 133 -52 66 0 128 58 176 167 25 57 18 98 -28 168 -61 91 -131 123
-189 87z m77 -192 c-1 -13 -8 -27 -14 -31 -17 -11 -58 12 -58 32 0 20 16 29
50 26 20 -2 24 -7 22 -27z"/>
</g>
</svg>
